0
SECTION
2
HEADER
9
$INSUNITS
70
4
9
$ACADVER
1
AC1014
9
$HANDSEED
5
FFFF
0
ENDSEC
0
SECTION
2
TABLES
0
TABLE
2
VPORT
5
8
100
AcDbSymbolTable
0
ENDTAB
0
TABLE
2
LTYPE
5
5
100
AcDbSymbolTable
0
LTYPE
5
14
100
AcDbSymbolTableRecord
100
AcDbLinetypeTableRecord
2
BYBLOCK
70
0
0
LTYPE
5
15
100
AcDbSymbolTableRecord
100
AcDbLinetypeTableRecord
2
BYLAYER
70
0
0
ENDTAB
0
TABLE
2
LAYER
5
2
100
AcDbSymbolTable
70
2
0
LAYER
5
50
100
AcDbSymbolTableRecord
100
AcDbLayerTableRecord
2
0
70
0
6
CONTINUOUS
0
ENDTAB
0
TABLE
2
STYLE
5
3
100
AcDbSymbolTable
70
1
0
STYLE
5
11
100
AcDbSymbolTableRecord
100
AcDbTextStyleTableRecord
2
STANDARD
70
0
0
ENDTAB
0
TABLE
2
VIEW
5
6
100
AcDbSymbolTable
70
0
0
ENDTAB
0
TABLE
2
UCS
5
7
100
AcDbSymbolTable
70
0
0
ENDTAB
0
TABLE
2
APPID
5
9
100
AcDbSymbolTable
70
2
0
APPID
5
12
100
AcDbSymbolTableRecord
100
AcDbRegAppTableRecord
2
ACAD
70
0
0
ENDTAB
0
TABLE
2
DIMSTYLE
5
A
100
AcDbSymbolTable
70
1
0
ENDTAB
0
TABLE
2
BLOCK_RECORD
5
1
100
AcDbSymbolTable
70
1
0
BLOCK_RECORD
5
1F
100
AcDbSymbolTableRecord
100
AcDbBlockTableRecord
2
*MODEL_SPACE
0
BLOCK_RECORD
5
1B
100
AcDbSymbolTableRecord
100
AcDbBlockTableRecord
2
*PAPER_SPACE
0
ENDTAB
0
ENDSEC
0
SECTION
2
BLOCKS
0
BLOCK
5
20
100
AcDbEntity
100
AcDbBlockBegin
2
*MODEL_SPACE
0
ENDBLK
5
21
100
AcDbEntity
100
AcDbBlockEnd
0
BLOCK
5
1C
100
AcDbEntity
100
AcDbBlockBegin
2
*PAPER_SPACE
0
ENDBLK
5
1D
100
AcDbEntity
100
AcDbBlockEnd
0
ENDSEC
0
SECTION
2
ENTITIES
0
LINE
5
100
100
AcDbEntity
8
0
100
AcDbLine
10
140
20
190
30
0
11
-30
21
190
31
0
0
LINE
5
101
100
AcDbEntity
8
0
100
AcDbLine
10
-30
20
190
30
0
11
-30
21
170
31
0
0
LWPOLYLINE
5
102
100
AcDbEntity
8
0
100
AcDbPolyline
90
4
70
1
43
0.0
10
-2.0000000298023224
20
165.0000024586916
10
-26.000000387430191
20
165.0000024586916
10
-26.000000387430191
20
130.00000193715096
10
-2.0000000298023224
20
130.00000193715096
0
LINE
5
103
100
AcDbEntity
8
0
100
AcDbLine
10
249.52975500339994
20
170
30
0
11
-30
21
170
31
0
0
LWPOLYLINE
5
104
100
AcDbEntity
8
0
100
AcDbPolyline
90
4
70
1
43
0.0
10
220
20
33.000000000000007
10
227
20
33.000000000000007
10
227
20
45
10
220
20
45
0
LWPOLYLINE
5
105
100
AcDbEntity
8
0
100
AcDbPolyline
90
4
70
1
43
0.0
10
220
20
63.000000000000007
10
227
20
63.000000000000007
10
227
20
75
10
220
20
75
0
LWPOLYLINE
5
106
100
AcDbEntity
8
0
100
AcDbPolyline
90
4
70
1
43
0.0
10
227
20
103
10
227
20
115
10
220
20
115
10
220
20
103
0
LWPOLYLINE
5
107
100
AcDbEntity
8
0
100
AcDbPolyline
90
4
70
1
43
0.0
10
220
20
155
10
220
20
143
10
227
20
143
10
227
20
155
0
LINE
5
108
100
AcDbEntity
8
0
100
AcDbLine
10
249.52975500339994
20
0
30
0
11
249.52975500339994
21
170
31
0
0
LINE
5
109
100
AcDbEntity
8
0
100
AcDbLine
10
-30
20
0
30
0
11
-30
21
170
31
0
0
LINE
5
110
100
AcDbEntity
8
0
100
AcDbLine
10
-30
20
0
30
0
11
249.52975500339994
21
0
31
0
0
LWPOLYLINE
5
111
100
AcDbEntity
8
0
100
AcDbPolyline
90
4
70
1
43
0.0
10
-23.000000342726707
20
90.000001341104507
10
-2.0000000298023224
20
90.000001341104507
10
-2.0000000298023224
20
125.00000186264515
10
-23.000000342726707
20
125.00000186264515
0
LINE
5
112
100
AcDbEntity
8
0
100
AcDbLine
10
140
20
170
30
0
11
140
21
190
31
0
0
LWPOLYLINE
5
113
100
AcDbEntity
8
0
100
AcDbPolyline
90
4
70
1
43
0.0
10
-20.000000298023224
20
85.000001266598701
10
-20.000000298023224
20
55.000000819563866
10
-2.0000000298023224
20
55.000000819563866
10
-2.0000000298023224
20
85.000001266598701
0
LWPOLYLINE
5
114
100
AcDbEntity
8
0
100
AcDbPolyline
90
4
70
1
43
0.0
10
-18.25
20
50
10
-2
20
50
10
-1.9999999999999996
20
25.000000000000004
10
-18.25
20
25.000000000000004
0
LINE
5
115
100
AcDbEntity
8
0
100
AcDbLine
10
75
20
170
30
0
11
175
21
0
31
0
0
LINE
5
116
100
AcDbEntity
8
0
100
AcDbLine
10
249.52975500339994
20
0
30
0
11
260
21
0
31
0
0
LINE
5
117
100
AcDbEntity
8
0
100
AcDbLine
10
260
20
0
30
0
11
260
21
95
31
0
0
LINE
5
118
100
AcDbEntity
8
0
100
AcDbLine
10
260
20
95
30
0
11
249.52975500339994
21
95
31
0
0
LINE
5
119
100
AcDbEntity
8
0
100
AcDbLine
10
260
20
0
30
0
11
270
21
0
31
0
0
LINE
5
120
100
AcDbEntity
8
0
100
AcDbLine
10
270
20
0
30
0
11
270
21
100
31
0
0
LINE
5
121
100
AcDbEntity
8
0
100
AcDbLine
10
270
20
100
30
0
11
260
21
100
31
0
0
LINE
5
122
100
AcDbEntity
8
0
100
AcDbLine
10
260
20
100
30
0
11
260
21
95
31
0
0
LINE
5
123
100
AcDbEntity
8
0
100
AcDbLine
10
270
20
0
30
0
11
280
21
0
31
0
0
LINE
5
124
100
AcDbEntity
8
0
100
AcDbLine
10
280
20
0
30
0
11
280
21
120
31
0
0
LINE
5
125
100
AcDbEntity
8
0
100
AcDbLine
10
280
20
120
30
0
11
270
21
120
31
0
0
LINE
5
126
100
AcDbEntity
8
0
100
AcDbLine
10
270
20
120
30
0
11
270
21
100
31
0
0
LINE
5
127
100
AcDbEntity
8
0
100
AcDbLine
10
280
20
0
30
0
11
290
21
0
31
0
0
LINE
5
128
100
AcDbEntity
8
0
100
AcDbLine
10
290
20
0
30
0
11
290
21
130
31
0
0
LINE
5
129
100
AcDbEntity
8
0
100
AcDbLine
10
290
20
130
30
0
11
280
21
130
31
0
0
LINE
5
130
100
AcDbEntity
8
0
100
AcDbLine
10
280
20
130
30
0
11
280
21
120
31
0
0
LINE
5
131
100
AcDbEntity
8
0
100
AcDbLine
10
290
20
0
30
0
11
300
21
0
31
0
0
LINE
5
132
100
AcDbEntity
8
0
100
AcDbLine
10
300
20
0
30
0
11
300
21
140
31
0
0
LINE
5
133
100
AcDbEntity
8
0
100
AcDbLine
10
300
20
140
30
0
11
290
21
140
31
0
0
LINE
5
134
100
AcDbEntity
8
0
100
AcDbLine
10
290
20
140
30
0
11
290
21
130
31
0
0
LINE
5
135
100
AcDbEntity
8
0
100
AcDbLine
10
300
20
0
30
0
11
310
21
0
31
0
0
LINE
5
136
100
AcDbEntity
8
0
100
AcDbLine
10
310
20
0
30
0
11
310
21
155
31
0
0
LINE
5
137
100
AcDbEntity
8
0
100
AcDbLine
10
310
20
155
30
0
11
300
21
155
31
0
0
LINE
5
138
100
AcDbEntity
8
0
100
AcDbLine
10
300
20
155
30
0
11
300
21
140
31
0
0
LINE
5
139
100
AcDbEntity
8
0
100
AcDbLine
10
310
20
0
30
0
11
320
21
0
31
0
0
LINE
5
140
100
AcDbEntity
8
0
100
AcDbLine
10
320
20
0
30
0
11
320
21
165
31
0
0
LINE
5
141
100
AcDbEntity
8
0
100
AcDbLine
10
320
20
165
30
0
11
310
21
165
31
0
0
LINE
5
142
100
AcDbEntity
8
0
100
AcDbLine
10
310
20
165
30
0
11
310
21
155
31
0
0
LINE
5
143
100
AcDbEntity
8
0
100
AcDbLine
10
140
20
190
30
0
11
310
21
190
31
0
0
LINE
5
144
100
AcDbEntity
8
0
100
AcDbLine
10
310
20
190
30
0
11
310
21
170
31
0
0
LINE
5
145
100
AcDbEntity
8
0
100
AcDbLine
10
310
20
170
30
0
11
249.52975500339994
21
170
31
0
0
ENDSEC
0
SECTION
2
OBJECTS
0
DICTIONARY
5
C
100
AcDbDictionary
3
ACAD_GROUP
350
D
3
ACAD_MLINESTYLE
350
17
0
DICTIONARY
5
D
100
AcDbDictionary
0
DICTIONARY
5
1A
330
C
100
AcDbDictionary
0
DICTIONARY
5
17
100
AcDbDictionary
0
ENDSEC
0
EOF
